<svg xmlns="http://www.w3.org/2000/svg" viewBox="0 0 1200 900" width="1200" height="900" role="img" aria-label="Home ICU Setup placeholder">
  <defs>
    <linearGradient id="bg" x1="0" y1="0" x2="1" y2="1">
      <stop offset="0%" stop-color="#0F0F23"/>
      <stop offset="55%" stop-color="#1A1A3E"/>
      <stop offset="100%" stop-color="#25254D"/>
    </linearGradient>
    <radialGradient id="glow" cx="50%" cy="45%" r="55%">
      <stop offset="0%" stop-color="#00E5FF" stop-opacity="0.22"/>
      <stop offset="100%" stop-color="#00E5FF" stop-opacity="0"/>
    </radialGradient>
    <pattern id="grid" width="60" height="60" patternUnits="userSpaceOnUse">
      <path d="M60 0 L0 0 0 60" fill="none" stroke="#FFFFFF" stroke-opacity="0.045" stroke-width="1"/>
    </pattern>
  </defs>
  <rect width="1200" height="900" fill="url(#bg)"/>
  <rect width="1200" height="900" fill="url(#grid)"/>
  <rect width="1200" height="900" fill="url(#glow)"/>
  
        <rect x="380" y="320" width="440" height="300" rx="18" fill="none" stroke="#00E5FF" stroke-width="4"/>
        <polyline points="410,480 480,480 500,430 520,540 545,455 570,480 810,480" fill="none" stroke="#00FF88" stroke-width="4" stroke-linejoin="round"/>
        <line x1="410" y1="560" x2="620" y2="560" stroke="#A78BFA" stroke-width="4"/>
        <line x1="410" y1="590" x2="540" y2="590" stroke="#00E5FF" stroke-width="4"/>
        <line x1="600" y1="620" x2="600" y2="680" stroke="#00E5FF" stroke-width="4"/>
        <line x1="530" y1="680" x2="670" y2="680" stroke="#00E5FF" stroke-width="4"/>
  <text x="600" y="760" text-anchor="middle" font-family="system-ui, sans-serif" font-size="40" font-weight="700" fill="#FFFFFF">Home ICU Setup</text>
  <text x="600" y="806" text-anchor="middle" font-family="system-ui, sans-serif" font-size="24" fill="#8E8EA8">Main view — placeholder image</text>
</svg>
